Coordinates
version=1
nRows=23
nColumns=28
inDegrees=yes

Units are S.I. units (second, meters, Newtons, ...)
If the header above contains a line with 'inDegrees', this indicates whether rotational values are in degrees (yes) or radians (no).

endheader
time	pelvis_tilt	pelvis_list	pelvis_rotation	pelvis_tx	pelvis_ty	pelvis_tz	hip_flexion_r	hip_adduction_r	hip_rotation_r	knee_angle_r	knee_rotation_r	knee_adduction_r	ankle_angle_r	subtalar_angle_r	mtp_angle_r	hip_flexion_l	hip_adduction_l	hip_rotation_l	knee_angle_l	knee_rotation_l	knee_adduction_l	ankle_angle_l	subtalar_angle_l	mtp_angle_l	lumbar_extension	lumbar_bending	lumbar_rotation
      0.57000000	     10.61636508	      7.61776640	    -87.20538766	     -0.18594065	      0.95529320	     -0.10082336	     32.28347455	    -12.36494700	      9.65650799	     -6.40458435	    -22.78021927	      0.66904701	      4.27802531	     -3.55448836	     -0.94658564	      7.09059186	     11.42438013	      5.95927845	    -19.88423343	     11.33172442	     -4.32748015	     25.63849459	     -2.26583435	     -7.61599882	      0.00000000	      0.00000000	      0.00000000
      0.58000000	     10.39036622	      7.71800284	    -86.90485285	     -0.18646136	      0.95393635	     -0.09007086	     31.31570912	    -11.82531171	      8.82017947	     -2.60042871	    -22.44160465	     -0.77421491	      4.19567953	     -4.40693347	     -0.58051681	      6.63146744	     11.02529591	      5.91632903	    -20.19544103	     11.01141776	     -4.46219062	     26.18375094	     -2.04577620	     -7.85955238	      0.00000000	      0.00000000	      0.00000000
      0.59000000	     10.46429739	      8.09790200	    -86.78351313	     -0.18679416	      0.95205001	     -0.07953322	     31.02451428	    -11.74012404	      8.86178324	      0.34742099	    -23.35717142	     -1.55761068	      3.95451071	     -4.25012439	     -0.64709265	      6.46669461	     11.02303498	      6.03215888	    -20.47451279	     10.95569183	     -4.59412769	     26.53095039	     -2.11110391	     -7.95516853	      0.00000000	      0.00000000	      0.00000000
      0.60000000	     10.55088790	      8.36453860	    -86.50523661	     -0.18662480	      0.95022050	     -0.06911321	     30.86119238	    -11.86607929	      9.22428025	      2.29500782	    -24.66008425	     -2.03457422	      3.80112954	     -3.97488786	     -0.82303193	      6.29209169	     11.06548594	      6.14931987	    -20.98459445	     10.84993701	     -4.67933222	     26.89428875	     -1.98924968	     -8.06072209	      0.00000000	      0.00000000	      0.00000000
      0.61000000	     10.62314396	      8.76309249	    -86.46868851	     -0.18700984	      0.94795505	     -0.05898273	     31.34319236	    -11.80510185	     10.46403554	      3.04194001	    -26.50703985	     -2.48212377	      3.90999885	     -2.68744211	     -1.13162700	      6.32326855	     11.07230372	      5.98478785	    -21.50297771	     10.85991717	     -4.67160103	     27.28483928	     -1.48874839	     -8.18139713	      0.00000000	      0.00000000	      0.00000000
      0.62000000	     10.84642621	      9.03106748	    -86.33913393	     -0.18733019	      0.94582143	     -0.04850111	     31.95140598	    -11.96175548	     11.99826936	      2.71555950	    -28.10585555	     -2.66549603	      4.27342598	     -1.60567440	     -1.09499039	      6.14810249	     11.28887835	      6.18292003	    -22.02183007	     10.83939379	     -4.65229402	     27.52578944	     -1.42953520	     -8.34437095	      0.00000000	      0.00000000	      0.00000000
      0.63000000	     11.14977845	      9.32212047	    -85.90381201	     -0.18749820	      0.94362590	     -0.03808873	     32.75216272	    -12.37093585	     13.59516994	      1.39687993	    -29.30274469	     -2.55995304	      4.98105229	     -0.68023873	     -0.56512230	      6.02215047	     11.54999157	      6.69038487	    -22.61267352	     10.62100334	     -4.75754694	     27.46622661	     -1.65671432	     -8.56983482	      0.00000000	      0.00000000	      0.00000000
      0.64000000	     11.40180963	      9.21314351	    -85.43749437	     -0.18781344	      0.94226084	     -0.02700634	     33.24206543	    -12.79586417	     14.51512371	     -0.78995038	    -29.30987047	     -1.88548097	      5.59212770	     -0.93905676	     -0.25185920	      5.42420208	     11.66818213	      7.24268161	    -23.23378845	     10.47438641	     -4.96559797	     27.56261059	     -1.74236731	     -8.70375621	      0.00000000	      0.00000000	      0.00000000
      0.65000000	     11.48430164	      9.12153711	    -85.01009333	     -0.18822331	      0.94095441	     -0.01525188	     33.76255544	    -13.10217286	     14.98442609	     -3.47936108	    -28.34436503	     -0.83221124	      6.16818498	     -1.58862147	     -0.07653306	      4.74559385	     11.68898717	      7.70257382	    -23.64430369	     10.23313693	     -4.80439879	     27.54364070	     -1.55409464	     -8.75762113	      0.00000000	      0.00000000	      0.00000000
      0.66000000	     11.52333179	      9.22622455	    -84.45107464	     -0.18875229	      0.93938700	     -0.00394248	     34.57271681	    -13.56388997	     14.92748070	     -6.59680027	    -26.67852037	      0.69038463	      6.49539053	     -3.21805426	      0.06161130	      4.50334159	     11.54992645	      8.27020289	    -24.47977523	     10.25094001	     -5.00381324	     27.47831852	     -1.35222503	     -8.97142342	      0.00000000	      0.00000000	      0.00000000
      0.67000000	     11.42200140	      9.17880799	    -83.92073425	     -0.18969261	      0.93808851	      0.00827058	     35.02495775	    -13.70041793	     14.35847838	     -9.33771102	    -24.89061599	      1.74682266	      6.81484555	     -4.18466061	      0.06614956	      4.09995806	     11.10048276	      8.34523725	    -25.36100086	      9.67317146	     -5.21284367	     27.51994377	     -1.19929011	     -9.00497990	      0.00000000	      0.00000000	      0.00000000
      0.68000000	     10.94804038	      9.07143693	    -83.10853495	     -0.19031203	      0.93724701	      0.02064383	     34.93837189	    -13.59210187	     13.12128563	    -11.15657132	    -23.57249080	      2.43726635	      6.63710969	     -4.92292760	      0.03833047	      3.69463834	     10.34079928	      8.78153652	    -26.25979388	      9.21289120	     -5.32820478	     27.34524104	     -0.96473132	     -9.10663693	      0.00000000	      0.00000000	      0.00000000
      0.69000000	     10.52383828	      9.09117516	    -82.60083343	     -0.19122298	      0.93636604	      0.03286542	     34.96561172	    -13.30486591	     12.25857355	    -12.43867108	    -22.62204258	      2.96452066	      6.37480288	     -6.14731255	      0.18397993	      3.62532247	      9.54536085	      8.81455926	    -27.43903448	      8.59431635	     -5.60412928	     27.12543008	     -1.04527497	     -9.11392141	      0.00000000	      0.00000000	      0.00000000
      0.70000000	      9.74855691	      9.08152553	    -82.00038542	     -0.19208642	      0.93610782	      0.04514741	     34.56365441	    -12.64762913	     11.09295781	    -12.70614188	    -21.48351353	      3.05100964	      4.66909869	     -8.43075932	      0.60556329	      3.51428328	      8.52932440	      9.78075697	    -28.45445127	      8.62042991	     -5.94203945	     26.52044769	     -1.32857489	     -9.18315744	      0.00000000	      0.00000000	      0.00000000
      0.71000000	      9.00665867	      9.22419293	    -81.28940664	     -0.19231723	      0.93593932	      0.05704819	     34.32620098	    -12.12414345	      9.66867430	    -13.01200528	    -19.71575935	      2.93279051	      2.48410960	    -11.09757128	      1.06974129	      3.96664845	      7.49414094	      9.43010432	    -30.04618524	      7.72852577	     -6.01277779	     25.80766493	     -1.34425897	     -9.01140563	      0.00000000	      0.00000000	      0.00000000
      0.72000000	      8.32572571	      9.29112487	    -80.82534948	     -0.19277764	      0.93594931	      0.06927316	     34.09494619	    -11.48133308	      8.19473824	    -13.39653974	    -17.41905276	      2.57006021	      0.17752116	    -14.14887939	      1.18096248	      4.26325292	      6.62364002	     10.16119071	    -31.52215717	      7.86838330	     -6.36386807	     24.83938793	     -1.51929967	     -8.82194843	      0.00000000	      0.00000000	      0.00000000
      0.73000000	      7.88662945	      9.75034039	    -80.37017040	     -0.19350143	      0.93547869	      0.08025754	     34.54445660	    -11.18727017	      7.21571811	    -14.33936255	    -15.60213565	      2.38067219	     -1.43403839	    -17.00915400	      0.77479505	      5.46897201	      5.92166072	     10.05643373	    -33.71159131	      7.42451132	     -6.78338098	     23.39473191	     -1.76007373	     -8.26325053	      0.00000000	      0.00000000	      0.00000000
      0.74000000	      7.30232503	     10.19103814	    -80.02936995	     -0.19442586	      0.93513492	      0.09097309	     35.00689088	    -10.84765695	      6.36559544	    -15.35135241	    -14.21612223	      2.50906493	     -2.94071835	    -19.52856197	     -0.40495226	      6.71579352	      5.33036994	     11.23755686	    -35.95972512	      8.23463004	     -7.36601023	     21.87879365	     -1.74038726	     -7.49863658	      0.00000000	      0.00000000	      0.00000000
      0.75000000	      6.72478114	     10.60215693	    -79.99889946	     -0.19505934	      0.93489646	      0.10200647	     35.49076010	    -10.48561010	      6.06165121	    -16.47855051	    -13.47217394	      2.79536499	     -3.98913167	    -20.69240037	     -1.70726503	      8.29890811	      4.54260412	     10.52082846	    -38.68574869	      7.74629292	     -7.58232838	     19.82426873	     -1.99305215	     -6.25717350	      0.00000000	      0.00000000	      0.00000000
      0.76000000	      6.14319103	     10.94862299	    -79.88177013	     -0.19613429	      0.93443689	      0.11210782	     36.03110872	    -10.10237563	      6.72341037	    -17.93441503	    -14.08680399	      3.39125822	     -3.99693020	    -20.00730437	     -5.93417387	     10.08947545	      3.70038410	     10.66254600	    -41.67767770	      7.88266270	     -8.28718766	     17.91668685	     -1.73559641	     -1.84673279	      0.00000000	      0.00000000	      0.00000000
      0.77000000	      5.67850437	     10.96705538	    -80.31238679	     -0.19733066	      0.93454198	      0.12249175	     36.34899904	     -9.59513681	      8.31743890	    -19.59441974	    -15.50735622	      4.49195574	     -3.79952885	    -19.21197937	     -6.03275824	     11.52719263	      2.85508024	      9.91306116	    -44.55963165	      7.05311189	     -8.71568732	     15.12009349	     -3.04237016	     -1.21367235	      0.00000000	      0.00000000	      0.00000000
      0.78000000	      4.84943938	     10.98670466	    -80.64150035	     -0.19898467	      0.93461174	      0.13307253	     36.49139996	     -8.66324138	      9.97705443	    -20.96965829	    -17.23920808	      5.61235863	     -3.35307325	    -18.66884322	     -5.97997274	     13.15743446	      1.45402824	      8.95372724	    -47.50559631	      5.74958508	     -9.18436183	     12.43750680	     -4.84182680	     -0.51744296	      0.00000000	      0.00000000	      0.00000000
      0.79000000	      3.83929046	     10.84240496	    -80.93373652	     -0.20056108	      0.93512238	      0.14407741	     36.18099097	     -7.54086512	     11.11660804	    -21.90378874	    -18.43959729	      6.69726736	     -3.06113283	    -18.51700804	     -5.84317553	     14.72238202	     -0.21929456	      7.85379789	    -50.58852852	      4.89766299	     -9.33955841	      9.83230034	     -5.32411685	      0.21736058	      0.00000000	      0.00000000	      0.00000000
